<svg xmlns="http://www.w3.org/2000/svg" width="498.667" height="498.667" preserveAspectRatio="xMidYMid meet" version="1.0" viewBox="0 0 374 374"><metadata>Created by potrace 1.14, written by Peter Selinger 2001-2017</metadata><g fill="#000" stroke="none"><path d="M1649 3720 c-53 -4 -112 -12 -130 -18 -19 -6 -51 -13 -73 -17 -166 -28 -478 -166 -631 -280 -38 -28 -90 -66 -114 -83 -67 -48 -197 -176 -227 -224 -14 -24 -52 -70 -84 -103 -57 -59 -159 -222 -219 -348 -40 -86 -91 -235 -91 -268 0 -14 -9 -52 -21 -85 -78 -217 -80 -609 -5 -869 8 -27 24 -84 36 -125 12 -41 32 -95 46 -120 13 -25 35 -70 49 -100 40 -89 122 -230 182 -308 49 -67 79 -102 178 -213 45 -50 245 -215 306 -253 149 -90 202 -119 290 -154 112 -46 200 -73 374 -115 154 -38 430 -46 620 -18 183 26 527 143 635 215 19 13 67 42 107 65 83 48 191 138 312 261 84 86 171 186 171 198 0 4 12 21 26 37 48 55 80 109 145 240 35 72 67 132 70 135 6 4 22 57 66 215 21 76 44 210 54 310 12 129 11 373 -2 420 -6 22 -13 66 -14 98 -2 32 -8 64 -14 71 -7 8 -18 36 -25 62 -7 27 -25 90 -38 139 -29 103 -116 280 -185 377 -186 260 -287 372 -428 477 -142 106 -176 127 -286 181 -57 28 -120 59 -139 70 -45 23 -166 63 -255 84 -38 9 -86 21 -106 26 -95 26 -378 35 -580 20z" transform="translate(0.000000,374.000000) scale(0.100000,-0.100000)"/></g></svg>